<?xml version="1.0" encoding="UTF-8" standalone="no"?>
<svg
   viewBox="0 0 512 512"
   version="1.1"
   id="svg14"
   sodipodi:docname="cyclist-icon-no-bg.svg"
   xml:space="preserve"
   inkscape:version="1.4.3 (0d15f75, 2025-12-25)"
   xmlns:inkscape="http://www.inkscape.org/namespaces/inkscape"
   xmlns:sodipodi="http://sodipodi.sourceforge.net/DTD/sodipodi-0.dtd"
   xmlns="http://www.w3.org/2000/svg"
   xmlns:svg="http://www.w3.org/2000/svg"><defs
     id="defs14" /><sodipodi:namedview
     id="namedview14"
     pagecolor="#ffffff"
     bordercolor="#000000"
     borderopacity="0.25"
     inkscape:showpageshadow="2"
     inkscape:pageopacity="0.0"
     inkscape:pagecheckerboard="0"
     inkscape:deskcolor="#d1d1d1"
     showguides="true"
     inkscape:zoom="1.4142136"
     inkscape:cx="193.04015"
     inkscape:cy="346.12877"
     inkscape:window-width="2560"
     inkscape:window-height="1334"
     inkscape:window-x="1717"
     inkscape:window-y="426"
     inkscape:window-maximized="1"
     inkscape:current-layer="svg14" /><path
     style="opacity:1;fill:#0ea5e9;fill-opacity:1;stroke:none;stroke-width:1;stroke-dasharray:none;stroke-opacity:1"
     d="m 213.66571,304.77741 c 0,0 -0.87139,2.87891 -4.33357,8.80515 -3.46218,5.92624 -16.6975,24.43478 -16.65792,28.41783 0.0396,3.98305 0.65587,7.19758 3.91127,9.35722 3.2554,2.15964 4.91837,0.87584 8.07257,-0.0414 3.1542,-0.91725 3.68536,-2.57738 5.18809,-6.3917 1.50273,-3.81432 3.66296,-8.02789 6.84418,-12.87228 3.18122,-4.84439 11.93823,-15.72619 11.31152,-17.54806 -0.30794,-0.8952 -0.22091,-0.0362 -4.67228,-2.98623 -4.60789,-3.05371 -8.79894,-7.14147 -9.66386,-6.74051 z"
     id="path52-4"
     sodipodi:nodetypes="szzzzzzsss" /><path
     style="fill:#1f2937;fill-opacity:1;stroke:none;stroke-width:1;stroke-dasharray:none;stroke-opacity:1;opacity:1"
     d="m 192.67421,342.00039 c 0,0 2.59474,8.29251 6.63309,9.07236 4.93427,0.95287 10.53885,-6.14826 10.53885,-6.14826 l 5.07546,1.73799 10.45728,5.45839 c 0,0 8.31254,5.81723 13.06306,7.3815 3.26669,1.07567 7.37326,-0.64398 10.24117,1.25429 1.6112,1.06644 3.39924,3.1552 2.89663,5.02085 -0.68896,2.55739 -4.35294,3.19809 -6.89063,3.95643 -4.19363,1.25321 -8.76279,1.31234 -13.10738,0.78161 -4.58675,-0.5603 -8.76671,-2.94468 -13.23241,-4.13204 -3.24201,-0.86201 -6.48209,-1.92241 -9.82778,-2.1675 -5.18011,-0.37948 -10.88069,3.39202 -15.54291,1.10264 -3.61346,-1.77439 -5.54978,-6.19398 -6.68943,-10.0549 -0.49504,-1.67708 -0.37054,-3.55271 0.0682,-5.24539 0.70874,-2.73442 6.31681,-8.01797 6.31681,-8.01797 z"
     id="path46-2"
     sodipodi:nodetypes="cscccssssssssssc" /><circle
     style="fill:#475569;fill-opacity:1;stroke:none;stroke-width:0.5;stroke-dasharray:none;stroke-opacity:1;opacity:1"
     id="path41-3"
     cx="98.684158"
     cy="385.38754"
     r="24.049124" /><path
     id="path42"
     style="fill:#64748b;fill-opacity:1;stroke:none;stroke-width:0.5;stroke-dasharray:none;stroke-opacity:1;opacity:1"
     d="M 113.63672 347.65039 L 95.609375 383.85547 L 99.380859 388.75195 L 151.02148 378.20898 A 31.181534 31.181534 0 0 1 144.81836 378.83203 A 31.181534 31.181534 0 0 1 113.63672 347.65039 z " /><circle
     style="fill:#475569;fill-opacity:1;stroke:none;stroke-width:0.5;stroke-dasharray:none;stroke-opacity:1;opacity:1"
     id="path41"
     cx="144.81847"
     cy="347.65076"
     r="31.181534" /><path
     style="opacity:1;fill:#f8b4a0;fill-opacity:1;stroke:none;stroke-width:1;stroke-dasharray:none;stroke-opacity:1"
     d="m 228.58008,237.20703 c 0.91188,-1.22982 34.17134,-6.64777 35.33789,-5.79101 1.16655,0.85676 1.77003,20.38149 1.30087,26.49444 -0.46916,6.11295 0.44948,4.27584 -5.43675,13.95777 -2.12622,3.4973 -9.68095,12.75252 -13.60236,19.45901 -6.93465,11.8598 -16.42949,22.82477 -18.17788,23.17691 -1.74839,0.35214 -13.70864,-8.3452 -14.33614,-9.72674 -0.6275,-1.38154 6.40391,-24.35865 10.09064,-31.93531 3.68673,-7.57666 6.00216,-7.56458 9.07837,-14.12372 3.07621,-6.55914 -5.16652,-20.28153 -4.25464,-21.51135 z"
     id="path51"
     sodipodi:nodetypes="zzzsszzzzz" /><!-- Trainer base platform --><!-- Trainer vertical support --><!-- Rear wheel --><!-- Spokes suggestion --><!-- Bike frame - main triangle --><path
     id="polygon6"
     style="fill:none;stroke:#374151;stroke-width:10;stroke-linejoin:round;opacity:1"
     d="M 144.81847,347.65076 209.66571,256 240.00185,363.63804 Z"
     sodipodi:nodetypes="cccc" /><!-- Top tube --><path
     id="line7"
     style="stroke:#374151;stroke-width:10;stroke-linecap:round;stroke-opacity:1;opacity:1"
     d="M 209.66571,256 331.16139,237.94739"
     sodipodi:nodetypes="cc" /><path
     id="line7-5"
     style="stroke:#374151;stroke-width:10;stroke-linecap:round;stroke-opacity:1;opacity:1"
     d="M 240.00185,363.63804 336.16139,252.91046"
     sodipodi:nodetypes="cc" /><!-- Seat tube --><path
     id="line8"
     style="stroke:#374151;stroke-width:8;stroke-linecap:round;opacity:1"
     d="m 209.66571,256 -21.3897,-53.19772"
     sodipodi:nodetypes="cc" /><!-- Head tube --><path
     id="line9"
     style="fill:none;stroke:#64748b;stroke-width:8;stroke-linecap:round;stroke-opacity:1;opacity:1"
     d="m 366.87143,220.85121 9.36386,-4.10207 5.42506,-11.85162"
     sodipodi:nodetypes="ccc" /><path
     id="line9-6"
     style="fill:none;stroke:#64748b;stroke-width:4;stroke-linecap:round;stroke-dasharray:none;stroke-opacity:1;opacity:1"
     d="m 386.78956,240.24785 c 0,0 -1.78318,-5.33186 -2.26367,-8.09084 -1.23543,-7.09394 -1.93101,-25.13974 -1.93101,-25.13974"
     sodipodi:nodetypes="csc" /><!-- Saddle --><path
     id="ellipse9"
     style="fill:#374151;fill-opacity:1;opacity:1"
     d="m 217.33717,201.76807 c 0,1.6521 -6.43181,0.15808 -10.36701,0.013 -3.77316,-0.13914 -6.2182,0.38963 -10.40676,0.60602 -2.31666,0.11968 -4.18489,2.0072 -6.18513,2.44293 -3.112,0.67792 -5.10096,2.05602 -7.93588,2.08933 -3.28411,0.0386 -5.41694,-2.87429 -9.65581,-4.78941 -1.33348,-0.60247 -3.04311,-2.12575 -5.23396,-2.9989 -1.82649,-0.72793 -3.65169,-0.56612 -4.29327,-2.16839 -0.67751,-1.692 -0.42567,-3.92234 4.69465,-2.80308 2.56253,0.56015 4.64148,1.53881 7.69365,2.12962 5.2445,1.01519 11.73068,1.53797 16.69815,1.53797 8.46701,0 12.23668,-0.14135 17.98451,-0.023 4.92046,0.10127 7.00686,1.46507 7.00686,3.96399 z"
     sodipodi:nodetypes="ssssssssssssss" /><!-- Handlebars --><!-- Bottom bracket / crank area --><circle
     cx="240.00185"
     cy="363.63803"
     r="12"
     fill="#475569"
     id="circle9"
     style="fill:#374151;fill-opacity:1;opacity:1" /><!-- Crank arm --><!-- Pedal --><!-- Cyclist - leg --><!-- Cyclist - shorts over leg --><!-- Cyclist - torso --><!-- Cyclist - arm --><!-- Cyclist - head --><!-- Hair --><!-- Accent stripe on jersey --><!-- Brand accent on trainer --><path
     id="path15-4"
     style="stroke:#374151;stroke-width:10;stroke-linecap:round;stroke-opacity:1;opacity:1"
     d="m 331.16139,237.94739 5,14.96307"
     sodipodi:nodetypes="cc" /><path
     id="path15"
     style="stroke:#374151;stroke-width:10;stroke-linecap:round;stroke-opacity:1;opacity:1"
     d="m 331.16139,237.94739 v 0 m -2.4928,-11.03247 2.4928,11.03247"
     sodipodi:nodetypes="cccc" /><g
     id="g37"
     style="stroke-width:0.6;stroke-dasharray:none;opacity:1"><path
       id="line5-2"
       style="stroke:#6b7280;stroke-width:0.6;stroke-dasharray:none"
       d="m 385.66034,276.8952 -3.19082,70.75556"
       sodipodi:nodetypes="cc" /><path
       id="path16"
       style="stroke:#6b7280;stroke-width:0.6;stroke-dasharray:none"
       d="m 333.66139,291.55079 48.80813,56.09997"
       sodipodi:nodetypes="cc" /><path
       id="path17"
       style="stroke:#6b7280;stroke-width:0.6;stroke-dasharray:none"
       d="M 368.64095,276.85015 372.54154,342"
       sodipodi:nodetypes="cc" /><path
       id="path18"
       style="stroke:#6b7280;stroke-width:0.6;stroke-dasharray:none"
       d="M 368.19856,420.0969 372.54154,342"
       sodipodi:nodetypes="cc" /><path
       id="path19"
       style="stroke:#6b7280;stroke-width:0.6;stroke-dasharray:none"
       d="m 386.65932,420.14174 -4.1898,-72.49098"
       sodipodi:nodetypes="cc" /><path
       id="path20"
       style="stroke:#6b7280;stroke-width:0.6;stroke-dasharray:none"
       d="m 405.75782,414.98696 -23.2883,-67.3362"
       sodipodi:nodetypes="cc" /><path
       id="path21"
       style="stroke:#6b7280;stroke-width:0.6;stroke-dasharray:none"
       d="m 444.57084,318.80978 -62.10132,28.84098"
       sodipodi:nodetypes="cc" /><path
       id="path22"
       style="stroke:#6b7280;stroke-width:0.6;stroke-dasharray:none"
       d="m 405.22485,280.09313 -22.75533,67.55763"
       sodipodi:nodetypes="cc" /><path
       id="path23"
       style="stroke:#6b7280;stroke-width:0.6;stroke-dasharray:none"
       d="m 313.00108,319.60077 59.09068,30.48737"
       sodipodi:nodetypes="cc" /><path
       id="path24"
       style="stroke:#6b7280;stroke-width:0.6;stroke-dasharray:none"
       d="m 309.69175,337.56568 62.40001,12.52246"
       sodipodi:nodetypes="cc" /><path
       id="path25"
       style="stroke:#6b7280;stroke-width:0.6;stroke-dasharray:none"
       d="m 309.49499,356.12154 64.04476,-12.29463"
       sodipodi:nodetypes="cc" /><path
       id="path26"
       style="stroke:#6b7280;stroke-width:0.6;stroke-dasharray:none"
       d="m 312.54257,374.6774 60.99718,-30.85049"
       sodipodi:nodetypes="cc" /><path
       id="path27"
       style="stroke:#6b7280;stroke-width:0.6;stroke-dasharray:none"
       d="m 321.76141,389.92394 56.38776,-37.27315"
       sodipodi:nodetypes="cc" /><path
       id="path28"
       style="stroke:#6b7280;stroke-width:0.6;stroke-dasharray:none"
       d="m 332.17126,404.94355 45.97791,-52.29276"
       sodipodi:nodetypes="cc" /><path
       id="path29"
       style="stroke:#6b7280;stroke-width:0.6;stroke-dasharray:none"
       d="m 349.95529,413.45325 22.33323,-65.80249"
       sodipodi:nodetypes="cc" /><path
       id="path30"
       style="stroke:#6b7280;stroke-width:0.6;stroke-dasharray:none"
       d="M 420.63304,402.22518 372.28852,347.65076"
       sodipodi:nodetypes="cc" /><path
       id="path31"
       style="stroke:#6b7280;stroke-width:0.6;stroke-dasharray:none"
       d="m 433.87034,389.22426 -61.58182,-41.5735"
       sodipodi:nodetypes="cc" /><path
       id="path32"
       style="stroke:#6b7280;stroke-width:0.6;stroke-dasharray:none"
       d="M 441.90727,373.85953 377.46948,342.93455"
       sodipodi:nodetypes="cc" /><path
       id="path33"
       style="stroke:#6b7280;stroke-width:0.6;stroke-dasharray:none"
       d="M 446.16212,355.18548 377.46948,342.93455"
       sodipodi:nodetypes="cc" /><path
       id="path34"
       style="stroke:#6b7280;stroke-width:0.6;stroke-dasharray:none"
       d="m 449.76123,337.24419 -71.61206,15.4066"
       sodipodi:nodetypes="cc" /><path
       id="path35"
       style="stroke:#6b7280;stroke-width:0.6;stroke-dasharray:none"
       d="m 433.45098,303.74757 -55.9815,39.18698"
       sodipodi:nodetypes="cc" /><path
       id="path36"
       style="stroke:#6b7280;stroke-width:0.6;stroke-dasharray:none"
       d="M 420.21368,291.69217 375.80389,339.9893"
       sodipodi:nodetypes="cc" /><path
       id="path37"
       style="stroke:#6b7280;stroke-width:0.6;stroke-dasharray:none"
       d="M 323.66859,305.02447 373.54,339.37745"
       sodipodi:nodetypes="cc" /><path
       id="path38"
       style="stroke:#6b7280;stroke-width:0.6;stroke-dasharray:none"
       d="m 348.60429,282.68652 23.48747,67.40162"
       sodipodi:nodetypes="cc" /></g><path
     id="path49"
     style="opacity:1;fill:#1f2937;fill-opacity:1;stroke:none;stroke-width:1;stroke-dasharray:none;stroke-opacity:1"
     d="m 234.22595,126.86708 c -1.39667,0.16675 -9.68727,11.29002 -14.93483,16.38724 -5.24756,5.09723 -7.79091,11.28803 -9.02159,18.74177 -1.23068,7.45374 -0.26395,13.33075 1.97821,20.31024 1.53151,4.76734 8.17609,14.83429 8.17609,14.83429 l 3.33203,16.66602 c 0,0 2.14263,22.1261 4.82422,23.40039 2.68159,1.27429 33.95402,-4.25964 35.33789,-5.79101 1.38387,-1.53137 -0.43945,-21.51758 -0.43945,-21.51758 0,0 6.92165,2.22978 9.12206,3.44932 3.21353,1.78106 5.13887,6.03101 6.86817,5.8124 1.7293,-0.21861 24.44946,-26.079 24.36384,-27.25288 -0.0856,-1.17388 -13.63386,-13.39522 -20.97126,-19.21392 -6.85716,-5.15967 -22,-13.37109 -22,-13.37109 0,0 -0.38739,-5.95357 -1.45117,-8.69141 -1.33384,-3.43291 -3.71907,-6.38838 -6.01563,-9.26758 -2.54566,-3.1915 -5.16685,-6.2164 -8.5332,-8.78516 -3.36635,-2.56876 -9.23871,-5.87778 -10.63538,-5.71104 z"
     sodipodi:nodetypes="zzzscczzcszzscsszz" /><circle
     cx="377.46948"
     cy="347.65076"
     r="73.036934"
     fill="none"
     stroke="#475569"
     stroke-width="12"
     id="circle3-8"
     style="stroke:#64748b;stroke-opacity:1;opacity:1" /><path
     id="path15-2"
     style="stroke:#374151;stroke-width:10;stroke-linecap:round;stroke-opacity:1;opacity:1"
     d="M 377.46952,347.65079 337.83285,259.84436"
     sodipodi:nodetypes="cc" /><path
     d="m 336.16139,252.91046 c 0,0 8.12052,0.68303 15.99064,-2.93905 5.40958,-2.48967 10.88791,-8.63444 12.77708,-11.91243 3.04289,-5.27987 3.87561,-11.61463 -0.3033,-16.14406 -3.82771,-4.14878 -15.09573,-2.23483 -15.09573,-2.23483 L 330,225"
     fill="none"
     stroke="#374151"
     stroke-width="6"
     stroke-linecap="round"
     stroke-linejoin="round"
     id="path9"
     sodipodi:nodetypes="cssscc"
     style="stroke:#64748b;stroke-opacity:1;opacity:1" /><circle
     style="fill:#64748b;fill-opacity:1;stroke:none;stroke-width:0.5;stroke-dasharray:none;stroke-opacity:1;opacity:1"
     id="path43"
     cx="98.684158"
     cy="385.38754"
     r="3.435617" /><path
     style="opacity:1;fill:#64748b;fill-opacity:1;stroke:none;stroke-width:1;stroke-dasharray:none;stroke-opacity:1"
     d="m 244.03345,306.57732 49.14099,30.69422"
     id="path45" /><path
     style="opacity:1;fill:#f8b4a0;fill-opacity:1;stroke:none;stroke-width:1;stroke-dasharray:none;stroke-opacity:1"
     d="m 279.46875,219.16016 c 0.19709,-1.88361 21.91903,-27.22248 24.36384,-27.25288 2.44481,-0.0304 8.85845,9.17848 12.57517,13.88088 3.71672,4.7024 8.8345,9.69405 9.75363,14.20743 0.91913,4.51338 0.25432,4.93302 -2.06491,10.19591 -2.31923,5.26289 -7.7678,14.25701 -13.2028,21.48177 -5.435,7.22476 -18.39784,21.76554 -19.47428,21.8091 -1.07644,0.0436 -18.74969,-11.55262 -19.30538,-12.48237 -0.5557,-0.92975 -0.36448,-2.44039 0.33429,-6.15564 0.69877,-3.71525 4.32191,-9.72127 7.438,-13.78835 3.11609,-4.06708 7.78746,-7.8755 10.94808,-10.36307 3.16062,-2.48757 6.00812,-4.447 5.84312,-5.84173 -0.16499,-1.39473 -17.40585,-3.80744 -17.20876,-5.69105 z"
     id="path50"
     sodipodi:nodetypes="zzzzzzzzzzzzz" /><path
     style="opacity:1;fill:#0ea5e9;fill-opacity:1;stroke:none;stroke-width:1;stroke-dasharray:none;stroke-opacity:1"
     d="m 272.11402,261 c 0,0 -0.87139,2.87891 -4.33357,8.80515 -3.46218,5.92624 -17.75329,21.90343 -17.71371,25.88648 0.0396,3.98305 -0.46124,8.72605 2.79416,10.88569 3.2554,2.15964 6.96591,0.0819 10.12011,-0.83536 3.1542,-0.91725 3.03376,-2.41225 5.62293,-5.59976 2.58918,-3.18752 6.01183,-6.60514 9.19305,-11.44953 3.18122,-4.84439 14.24912,-13.38843 13.62241,-15.2103 -0.30794,-0.8952 -5.19015,-2.79187 -9.64152,-5.74186 -4.60789,-3.05371 -8.79894,-7.14147 -9.66386,-6.74051 z"
     id="path52"
     sodipodi:nodetypes="szzzzzzsss" /><path
     d="m 139.81884,342.02042 11.31919,0 65.5523,86.73426 h -14.17539 l -51.37691,-77.11665 -11.31919,0 -54.88311,77.11665 H 69.955398 Z"
     fill="#64748b"
     id="path2"
     style="stroke-width:1;opacity:1;stroke:#000000;fill:#000000"
     sodipodi:nodetypes="ccccccccc" /><path
     style="opacity:1;fill:#0ea5e9;fill-opacity:1;stroke:#374151;stroke-width:2.9;stroke-linecap:round;stroke-dasharray:none;stroke-opacity:1"
     d="m 240.00185,363.63803 40.59466,-23.24422"
     id="path54"
     sodipodi:nodetypes="cc" /><rect
     x="380.24011"
     y="203.53806"
     width="20"
     height="4.3361034"
     rx="2"
     fill="#64748b"
     id="rect10"
     style="stroke-width:1;opacity:1"
     transform="rotate(22.705323)" /><path
     style="opacity:1;fill:#1f2937;fill-opacity:1;stroke:none;stroke-width:1;stroke-dasharray:none;stroke-opacity:1"
     d="m 250.31397,294.532 c 1.33092,-0.45315 -0.037,8.26714 3.80053,9.74706 5.52407,2.13035 10.01111,0.51024 10.81408,0.49835 0.80297,-0.0119 4.06855,3.49684 4.06855,3.49684 l 7.68616,8.94828 c 0,0 5.56134,8.48586 9.39258,11.70083 2.63454,2.21077 7.08603,2.13726 9.04509,4.96399 1.1006,1.58806 1.98618,4.19109 0.82733,5.73716 -1.58852,2.11931 -5.22874,1.35505 -7.86667,1.11787 -4.3593,-0.39195 -8.62435,-2.03207 -12.46204,-4.13666 -4.0516,-2.22189 -7.04875,-5.98678 -10.75531,-8.74607 -2.69089,-2.0032 -8.26115,-3.48078 -11.27718,-4.94955 -4.6697,-2.27408 -8.40787,-1.59561 -11.88811,-5.45119 -2.69736,-2.98827 -2.85596,-7.81082 -2.48199,-11.81902 0.16244,-1.74105 0.97387,-3.43666 2.00923,-4.8458 1.67256,-2.27638 7.75683,-5.80893 9.08775,-6.26209 z"
     id="path46"
     sodipodi:nodetypes="zszccssssssssssz" /><path
     style="opacity:1;fill:#f8b4a0;fill-opacity:1;stroke:none;stroke-width:1;stroke-dasharray:none;stroke-opacity:1"
     d="m 313.32226,130.83657 c 0.19709,-1.88361 24.85712,9.04484 25.2927,11.37824 0.43558,2.3334 -1.84477,11.86956 -2.45357,17.33846 -0.6088,5.4689 -0.91913,13.5706 0,18.08398 0.91913,4.51338 5.71402,20.84704 6.90486,25.77563 1.19084,4.9286 5.10273,11.54799 6.99137,13.76213 1.88865,2.21413 11.85784,3.02227 14.56819,4.73991 2.71035,1.71764 12.91777,8.25583 7.12371,13.08794 -5.79406,4.83211 -18.06808,2.16743 -23.00504,1.09993 -2.68465,-0.58049 -5.91322,-4.6166 -10.06092,-9.8474 -3.70401,-4.67125 -6.31328,-10.62725 -7.41804,-12.45875 -7.24191,-12.0059 -10.99737,-19.52688 -12.67677,-23.6387 -1.51107,-3.6997 -4.71731,-14.27888 -5.28152,-18.49445 -0.61242,-4.57582 0.16257,-14.36268 0.88847,-19.58737 0.7259,-5.22469 0.19169,-20.68574 -0.87347,-21.23955 -1.98826,-1.03376 3e-5,0 3e-5,0 z"
     id="path50-1"
     sodipodi:nodetypes="zzzzzzzzssszszsz" /><path
     style="opacity:1;fill:#0ea5e9;fill-opacity:1;stroke:none;stroke-width:2.9;stroke-linecap:round;stroke-dasharray:none;stroke-opacity:1"
     d="m 234.22595,126.86708 c -1.13443,-1.59027 2.66763,-7.39056 3.80914,-8.44049 1.14151,-1.04993 10.82672,-6.43376 14.12053,-9.15108 6.54514,-5.39963 8.78175,-9.530247 15.19064,-13.107991 9.63412,-5.378221 17.95481,-8.267351 27.42013,-10.597805 9.46532,-2.330454 20.41844,-3.286345 28.9022,-3.309326 8.48376,-0.02298 18.49682,1.53432 21.68321,2.363804 3.18639,0.829484 6.33984,-0.62384 7.9128,0.169606 1.57297,0.793445 1.8907,3.589737 2.71512,8.674381 0.82442,5.084645 1.36068,18.361941 0.50144,19.136971 -1.23415,1.11319 -3.97465,3.14353 -5.69261,4.63954 -1.71796,1.49601 0.50669,4.33616 -0.23638,6.76492 -0.74307,2.42876 -2.59177,4.06352 -4.49123,7.18153 -1.89946,3.11801 -5.61925,10.88696 -7.44598,11.02367 -1.82673,0.13672 -21.91129,-9.16972 -22.81071,-8.65987 -0.89942,0.50985 -0.38995,13.12818 -1.1819,14.15572 -0.79195,1.02754 -14.44163,2.03798 -26.23823,5.46385 -11.7966,3.42588 -25.28106,7.38258 -27.52279,6.14776 -2.24173,-1.23482 -8.17066,-13.99538 -13.88955,-20.92154 -5.71889,-6.92615 -11.6114,-9.94338 -12.74583,-11.53365 z"
     id="path55"
     sodipodi:nodetypes="zzsszzzzzzzzzzzzzzzz" /><path
     style="opacity:1;fill:none;fill-opacity:1;stroke:#d58f79;stroke-width:0.5;stroke-linecap:round;stroke-dasharray:none;stroke-opacity:1"
     d="m 351.39637,232.05692 c 5.7423,1.85635 11.10457,1.15542 9.8424,5.49277 m -7.39782,-8.43812 c 5.7423,1.85635 12.36414,1.94482 12.28388,8.05502 m -6.61363,-9.84354 c 3.71697,1.26694 9.05593,3.77138 11.25633,8.06633 m -4.97842,-8.80149 c 3.07618,0.47847 4.69985,2.46425 7.38943,5.75141"
     id="path54-3"
     sodipodi:nodetypes="cccccccc" /><path
     style="opacity:1;fill:#765e4e;fill-opacity:1;stroke:none;stroke-width:0.5;stroke-linecap:round;stroke-dasharray:none;stroke-opacity:0.960784"
     d="m 355.76861,94.273484 c -1.43878,-0.45841 -2.27968,-3.01164 -3.00641,-4.16751 -1.98761,-3.16129 -2.21433,-4.94064 -1.95758,-5.58317 0.35063,-0.87745 2.51763,-2.95765 3.54571,-3.78209 1.02808,-0.824439 3.92994,-5.249476 7.32779,-7.490359 3.39785,-2.240883 8.71066,-4.717486 13.00093,-5.037803 4.29027,-0.320317 8.50661,1.339911 11.58264,2.597821 3.07603,1.25791 5.53159,2.785515 6.85503,4.257211 1.32344,1.471696 1.17337,1.661784 1.65466,3.427516 0.48129,1.765732 0.003,5.208644 0.59095,7.150504 0.58838,1.94186 1.90062,2.97461 2.83657,4.66852 0.53606,0.97018 0.69642,2.54799 1.32923,3.73827 0.47206,0.88791 1.51746,1.37484 1.50734,2.23033 -0.0143,1.20689 -1.25186,1.51118 -1.92511,2.25456 -0.4437,0.48992 -0.48154,1.571296 -1.07175,1.774046 -0.5902,0.20276 -2.49742,-0.2054 -4.22748,-0.0431 -1.55625,0.14599 -2.26593,1.13389 -2.82184,0.98212 -0.4485,-0.12245 -22.45455,-2.535166 -31.58411,-4.381856 -2.18641,-0.44226 -3.35858,-2.50644 -3.63657,-2.59501 z"
     id="path57"
     sodipodi:nodetypes="ssszzzzzzzsssszssss" /><path
     style="opacity:1;fill:#f8b4a0;fill-opacity:1;stroke:none;stroke-width:0.5;stroke-linecap:round;stroke-dasharray:none;stroke-opacity:0.960784"
     d="m 368.17859,88.068504 c -2.37919,0.53797 -5.07996,7.68287 -7.18994,8.21374 -2.10998,0.53086 -3.48121,-2.03012 -5.10184,-1.53599 -1.62064,0.49412 -0.29124,6.872636 -0.41367,10.223446 -0.12243,3.35081 -0.53401,6.71265 -0.12413,9.52445 0.40988,2.8118 2.26087,4.11096 4.37897,4.9243 2.11811,0.81335 2.4299,0.16561 4.01847,-0.73869 1.58858,-0.90429 2.3224,-2.25278 3.30933,-2.74792 0.98693,-0.49514 5.474,-0.85833 6.14589,-0.5614 0.67189,0.29693 1.85369,1.84782 2.8927,2.19011 1.039,0.34229 1.27668,-1.08727 1.70955,-1.90811 0.43287,-0.82083 0.10176,-3.25056 2.48916,-4.8781 2.38736,-1.62754 5.38628,-2.35414 7.09142,-3.5161 1.70514,-1.16196 2.67409,-1.9322 3.30932,-2.99768 0.63523,-1.06548 1.57927,-1.06854 0.70914,-2.89202 -0.87013,-1.823476 -4.44811,-1.826916 -10.40073,-3.194766 -4.8412,-1.11245 -5.77451,-6.25721 -8.35715,-8.68712 -1.08987,-1.02542 -1.63966,-1.30133 -2.26981,-1.44725 -0.57072,-0.13215 0.18251,-0.50887 -2.19668,0.0291 z"
     id="path56"
     sodipodi:nodetypes="zzzzzzzzzzzzzzzsssz" /></svg>
